<svg width="974.6" height="75.201" viewBox="0 0 974.6 75.201" xmlns="http://www.w3.org/2000/svg">
    <g id="svgGroup" stroke-linecap="round" fill-rule="evenodd" font-size="9pt" stroke="#000000" stroke-width="0.25mm"
       fill="#000000" style="stroke:#6db33f;stroke-width:0.25mm;fill:#6db33f">
        <path d="M 9 74 L 0 74 L 0 4 L 13.3 4 L 32.7 48.3 L 51.8 4 L 65.4 4 L 65.4 74 L 55.9 74 L 55.9 16.1 L 37.2 58.2 L 27.8 58.2 L 9 16.1 L 9 74 Z"
              id="0"/>
        <path d="M 91.4 74 L 82.4 74 L 82.4 22 L 91.4 22 L 91.4 74 Z M 82.537 11.288 A 5.973 5.973 0 0 0 86.9 13.1 A 8.175 8.175 0 0 0 88.396 12.969 A 5.647 5.647 0 0 0 91.5 11.35 Q 93.2 9.6 93.2 6.8 A 7.26 7.26 0 0 0 93.2 6.719 A 6.06 6.06 0 0 0 91.35 2.35 A 7.395 7.395 0 0 0 91.292 2.293 A 6.059 6.059 0 0 0 86.9 0.5 A 8.264 8.264 0 0 0 85.244 0.658 A 5.661 5.661 0 0 0 82.3 2.2 A 5.588 5.588 0 0 0 80.829 4.832 A 7.987 7.987 0 0 0 80.6 6.8 A 5.992 5.992 0 0 0 81.092 9.219 A 6.643 6.643 0 0 0 82.45 11.2 A 7.466 7.466 0 0 0 82.537 11.288 Z"
              id="1"/>
        <path d="M 143.3 23.9 L 140.6 31.5 A 30.422 30.422 0 0 0 137.696 30.224 A 23.42 23.42 0 0 0 135.25 29.45 A 20.543 20.543 0 0 0 132.207 28.924 A 26.355 26.355 0 0 0 129.6 28.8 A 15.889 15.889 0 0 0 122.347 30.443 A 16.132 16.132 0 0 0 117.85 33.85 Q 113.1 38.9 113.1 47.8 A 25.192 25.192 0 0 0 113.805 53.86 A 21.45 21.45 0 0 0 115.1 57.6 A 18.564 18.564 0 0 0 118.01 62.177 A 16.275 16.275 0 0 0 120.65 64.6 Q 124.2 67.2 129 67.2 Q 132.165 67.2 134.568 66.61 A 15.08 15.08 0 0 0 135.5 66.35 Q 138.189 65.503 141.276 63.912 A 49.095 49.095 0 0 0 141.3 63.9 L 144.1 71.5 Q 141 73.2 137.15 74.2 Q 133.3 75.2 128.4 75.2 A 26.803 26.803 0 0 1 121.361 74.31 A 22.074 22.074 0 0 1 115.45 71.75 Q 109.9 68.3 106.9 62.15 Q 103.9 56 103.9 48 Q 103.9 40.5 106.95 34.3 Q 110 28.1 115.7 24.45 A 23.067 23.067 0 0 1 125.368 21.029 A 29.608 29.608 0 0 1 129.1 20.8 Q 133.5 20.8 136.85 21.6 Q 140.2 22.4 143.3 23.9 Z"
              id="2"/>
        <path d="M 163.6 74 L 154.6 74 L 154.6 22 L 163.3 22 L 163.3 33.3 Q 164.6 30 166.8 27.15 Q 169 24.3 172.3 22.55 A 14.817 14.817 0 0 1 176.98 21.026 A 19.459 19.459 0 0 1 180 20.8 Q 181.5 20.8 183 20.95 A 18.972 18.972 0 0 1 184.055 21.084 Q 184.555 21.162 184.982 21.262 A 8.817 8.817 0 0 1 185.5 21.4 L 182.8 30.7 A 9.763 9.763 0 0 0 180.655 30.088 Q 179.559 29.9 178.3 29.9 A 12.958 12.958 0 0 0 171.67 31.746 A 15.609 15.609 0 0 0 171.25 32 Q 167.922 34.086 165.778 38.442 A 22.927 22.927 0 0 0 165.75 38.5 Q 163.987 42.107 163.67 47.328 A 39.09 39.09 0 0 0 163.6 49.7 L 163.6 74 Z"
              id="3"/>
        <path d="M 200.1 71.75 A 24.559 24.559 0 0 0 204.698 73.84 Q 208.753 75.2 213.4 75.2 Q 220.8 75.2 226.65 71.8 Q 232.5 68.4 235.9 62.25 A 26.255 26.255 0 0 0 238.553 55.109 A 34.184 34.184 0 0 0 239.3 47.8 A 34.542 34.542 0 0 0 238.815 41.891 A 25.795 25.795 0 0 0 235.85 33.45 Q 232.4 27.4 226.55 24.1 A 24.848 24.848 0 0 0 221.909 22.073 A 27.738 27.738 0 0 0 213.4 20.8 A 31.325 31.325 0 0 0 211.82 20.839 A 26.169 26.169 0 0 0 200.2 24.1 Q 194.3 27.4 190.9 33.5 A 26.023 26.023 0 0 0 188.151 41.09 A 35.006 35.006 0 0 0 187.5 48 A 34.82 34.82 0 0 0 187.765 52.354 A 27.451 27.451 0 0 0 190.85 62.15 Q 194.2 68.3 200.1 71.75 Z M 213.4 67.2 Q 221.3 67.2 225.7 61.85 A 18.802 18.802 0 0 0 229.519 53.76 A 27.105 27.105 0 0 0 230.1 48 Q 230.1 42.8 227.9 38.45 A 19.198 19.198 0 0 0 223.728 32.881 A 18.17 18.17 0 0 0 221.95 31.45 Q 218.2 28.8 213.4 28.8 A 19.249 19.249 0 0 0 208.174 29.472 A 14.037 14.037 0 0 0 201.1 34 A 17.878 17.878 0 0 0 197.426 41.374 Q 196.7 44.306 196.7 47.8 Q 196.7 53 198.9 57.45 A 19.437 19.437 0 0 0 202.43 62.49 A 17.627 17.627 0 0 0 204.85 64.55 Q 208.6 67.2 213.4 67.2 Z"
              id="4"/>
        <path d="M 246.8 69.8 L 250.6 62.3 A 18.557 18.557 0 0 0 253.744 64.426 Q 255.298 65.27 257.15 65.95 A 24.073 24.073 0 0 0 264.761 67.387 A 27.464 27.464 0 0 0 265.6 67.4 Q 270.992 67.4 273.835 65.685 A 7.738 7.738 0 0 0 274.05 65.55 Q 276.9 63.7 276.9 60.8 A 7.123 7.123 0 0 0 276.586 58.653 A 6.212 6.212 0 0 0 275.85 57.1 A 6.384 6.384 0 0 0 274.921 56.006 Q 273.907 55.034 272.234 54.081 A 22.3 22.3 0 0 0 272 53.95 A 28.462 28.462 0 0 0 270.006 52.957 Q 267.89 51.995 264.901 50.946 A 103.602 103.602 0 0 0 263.9 50.6 A 46.616 46.616 0 0 1 259.502 48.857 Q 257.388 47.883 255.712 46.795 A 19.335 19.335 0 0 1 252.95 44.65 A 11.324 11.324 0 0 1 249.656 38.654 A 16.794 16.794 0 0 1 249.3 35.1 Q 249.3 29.1 254.55 24.95 Q 258.954 21.469 266.208 20.908 A 37.527 37.527 0 0 1 269.1 20.8 A 40.794 40.794 0 0 1 273.546 21.031 Q 275.854 21.284 277.87 21.815 A 25.234 25.234 0 0 1 278 21.85 Q 281.9 22.9 285 24.5 L 282.5 31.9 Q 279.8 30.3 276.35 29.3 A 25.024 25.024 0 0 0 271.867 28.453 A 31.837 31.837 0 0 0 268.7 28.3 A 20.632 20.632 0 0 0 265.763 28.495 Q 262.677 28.94 260.8 30.4 A 9.322 9.322 0 0 0 259.442 31.673 Q 258.74 32.492 258.405 33.365 A 4.529 4.529 0 0 0 258.1 35 A 4.921 4.921 0 0 0 259.595 38.552 A 7.082 7.082 0 0 0 260.2 39.1 A 9.88 9.88 0 0 0 261.5 39.969 Q 263.773 41.271 268.198 42.734 A 84.459 84.459 0 0 0 268.4 42.8 A 67.753 67.753 0 0 1 273.462 44.698 Q 279.389 47.217 282.2 50.1 Q 286.1 54.1 286.1 60.1 Q 286.1 66.848 280.849 70.855 A 16.618 16.618 0 0 1 280.45 71.15 Q 275.71 74.547 268.262 75.095 A 40.423 40.423 0 0 1 265.3 75.2 Q 259.4 75.2 254.65 73.7 A 30.883 30.883 0 0 1 250.81 72.215 Q 248.829 71.284 247.248 70.136 A 18.229 18.229 0 0 1 246.8 69.8 Z"
              id="5"/>
        <path d="M 340.2 51.7 L 303.8 51.7 A 24.088 24.088 0 0 0 304.939 56.725 Q 306.275 60.538 308.9 63.1 Q 313.1 67.2 320 67.2 Q 324.5 67.2 328.1 66.25 Q 331.7 65.3 335 63.8 L 337.1 71.5 A 40.77 40.77 0 0 1 332.765 73.126 A 51.863 51.863 0 0 1 329 74.15 A 38.914 38.914 0 0 1 323.908 74.969 A 52.025 52.025 0 0 1 318.9 75.2 A 28.318 28.318 0 0 1 311.154 74.195 A 21.108 21.108 0 0 1 301.15 68.05 A 23.521 23.521 0 0 1 295.945 58.51 Q 294.6 53.845 294.6 48 A 35.359 35.359 0 0 1 295.433 40.178 A 28.84 28.84 0 0 1 297.55 34.05 A 24.642 24.642 0 0 1 302.566 26.968 A 22.887 22.887 0 0 1 305.8 24.35 A 21.048 21.048 0 0 1 316.059 20.878 A 26.205 26.205 0 0 1 318.1 20.8 Q 325.6 20.8 330.55 24.05 Q 335.5 27.3 338 32.8 A 28.185 28.185 0 0 1 340.426 42.664 A 33.434 33.434 0 0 1 340.5 44.9 A 75.204 75.204 0 0 1 340.209 51.597 A 69.426 69.426 0 0 1 340.2 51.7 Z M 303.7 44.4 L 332.2 44.4 A 24.355 24.355 0 0 0 331.796 39.815 Q 331.3 37.231 330.196 35.207 A 12.422 12.422 0 0 0 328.4 32.7 A 12.488 12.488 0 0 0 321.439 28.924 A 18.395 18.395 0 0 0 317.9 28.6 A 13.58 13.58 0 0 0 312.788 29.535 A 12.524 12.524 0 0 0 308.3 32.65 Q 304.5 36.7 303.7 44.4 Z"
              id="6"/>
        <path d="M 361.5 74 L 352.5 74 L 352.5 22 L 361.2 22 L 361.2 33.3 Q 362.5 30 364.7 27.15 Q 366.9 24.3 370.2 22.55 A 14.817 14.817 0 0 1 374.88 21.026 A 19.459 19.459 0 0 1 377.9 20.8 Q 379.4 20.8 380.9 20.95 A 18.972 18.972 0 0 1 381.955 21.084 Q 382.455 21.162 382.882 21.262 A 8.817 8.817 0 0 1 383.4 21.4 L 380.7 30.7 A 9.763 9.763 0 0 0 378.555 30.088 Q 377.459 29.9 376.2 29.9 A 12.958 12.958 0 0 0 369.57 31.746 A 15.609 15.609 0 0 0 369.15 32 Q 365.822 34.086 363.678 38.442 A 22.927 22.927 0 0 0 363.65 38.5 Q 361.887 42.107 361.57 47.328 A 39.09 39.09 0 0 0 361.5 49.7 L 361.5 74 Z"
              id="7"/>
        <path d="M 415.7 74 L 406.3 74 L 385.4 24.4 L 393.6 21 L 411.3 63.8 L 429 21 L 436.7 24.4 L 415.7 74 Z" id="8"/>
        <path d="M 454.7 74 L 445.7 74 L 445.7 22 L 454.7 22 L 454.7 74 Z M 445.837 11.288 A 5.973 5.973 0 0 0 450.2 13.1 A 8.175 8.175 0 0 0 451.696 12.969 A 5.647 5.647 0 0 0 454.8 11.35 Q 456.5 9.6 456.5 6.8 A 7.26 7.26 0 0 0 456.5 6.719 A 6.06 6.06 0 0 0 454.65 2.35 A 7.395 7.395 0 0 0 454.592 2.293 A 6.059 6.059 0 0 0 450.2 0.5 A 8.264 8.264 0 0 0 448.544 0.658 A 5.661 5.661 0 0 0 445.6 2.2 A 5.588 5.588 0 0 0 444.129 4.832 A 7.987 7.987 0 0 0 443.9 6.8 A 5.992 5.992 0 0 0 444.392 9.219 A 6.643 6.643 0 0 0 445.75 11.2 A 7.466 7.466 0 0 0 445.837 11.288 Z"
              id="9"/>
        <path d="M 506.6 23.9 L 503.9 31.5 A 30.422 30.422 0 0 0 500.996 30.224 A 23.42 23.42 0 0 0 498.55 29.45 A 20.543 20.543 0 0 0 495.507 28.924 A 26.355 26.355 0 0 0 492.9 28.8 A 15.889 15.889 0 0 0 485.647 30.443 A 16.132 16.132 0 0 0 481.15 33.85 Q 476.4 38.9 476.4 47.8 A 25.192 25.192 0 0 0 477.105 53.86 A 21.45 21.45 0 0 0 478.4 57.6 A 18.564 18.564 0 0 0 481.31 62.177 A 16.275 16.275 0 0 0 483.95 64.6 Q 487.5 67.2 492.3 67.2 Q 495.465 67.2 497.868 66.61 A 15.08 15.08 0 0 0 498.8 66.35 Q 501.489 65.503 504.576 63.912 A 49.095 49.095 0 0 0 504.6 63.9 L 507.4 71.5 Q 504.3 73.2 500.45 74.2 Q 496.6 75.2 491.7 75.2 A 26.803 26.803 0 0 1 484.661 74.31 A 22.074 22.074 0 0 1 478.75 71.75 Q 473.2 68.3 470.2 62.15 Q 467.2 56 467.2 48 Q 467.2 40.5 470.25 34.3 Q 473.3 28.1 479 24.45 A 23.067 23.067 0 0 1 488.668 21.029 A 29.608 29.608 0 0 1 492.4 20.8 Q 496.8 20.8 500.15 21.6 Q 503.5 22.4 506.6 23.9 Z"
              id="10"/>
        <path d="M 559 51.7 L 522.6 51.7 A 24.088 24.088 0 0 0 523.739 56.725 Q 525.075 60.538 527.7 63.1 Q 531.9 67.2 538.8 67.2 Q 543.3 67.2 546.9 66.25 Q 550.5 65.3 553.8 63.8 L 555.9 71.5 A 40.77 40.77 0 0 1 551.565 73.126 A 51.863 51.863 0 0 1 547.8 74.15 A 38.914 38.914 0 0 1 542.708 74.969 A 52.025 52.025 0 0 1 537.7 75.2 A 28.318 28.318 0 0 1 529.954 74.195 A 21.108 21.108 0 0 1 519.95 68.05 A 23.521 23.521 0 0 1 514.745 58.51 Q 513.4 53.845 513.4 48 A 35.359 35.359 0 0 1 514.233 40.178 A 28.84 28.84 0 0 1 516.35 34.05 A 24.642 24.642 0 0 1 521.366 26.968 A 22.887 22.887 0 0 1 524.6 24.35 A 21.048 21.048 0 0 1 534.859 20.878 A 26.205 26.205 0 0 1 536.9 20.8 Q 544.4 20.8 549.35 24.05 Q 554.3 27.3 556.8 32.8 A 28.185 28.185 0 0 1 559.226 42.664 A 33.434 33.434 0 0 1 559.3 44.9 A 75.204 75.204 0 0 1 559.009 51.597 A 69.426 69.426 0 0 1 559 51.7 Z M 522.5 44.4 L 551 44.4 A 24.355 24.355 0 0 0 550.596 39.815 Q 550.1 37.231 548.996 35.207 A 12.422 12.422 0 0 0 547.2 32.7 A 12.488 12.488 0 0 0 540.239 28.924 A 18.395 18.395 0 0 0 536.7 28.6 A 13.58 13.58 0 0 0 531.588 29.535 A 12.524 12.524 0 0 0 527.1 32.65 Q 523.3 36.7 522.5 44.4 Z"
              id="11"/>
    </g>
    <g id="svgGroup" stroke-linecap="round" fill-rule="evenodd" font-size="9pt" stroke="#000000" stroke-width="0.25mm"
       fill="#000000" style="stroke:#000000;stroke-width:0.25mm;fill:currentColor">
        <path d="M 610.3 74 L 601.3 74 L 601.3 22 L 610.3 22 L 610.3 74 Z M 601.437 11.288 A 5.973 5.973 0 0 0 605.8 13.1 A 8.175 8.175 0 0 0 607.296 12.969 A 5.647 5.647 0 0 0 610.4 11.35 Q 612.1 9.6 612.1 6.8 A 7.26 7.26 0 0 0 612.1 6.719 A 6.06 6.06 0 0 0 610.25 2.35 A 7.395 7.395 0 0 0 610.192 2.293 A 6.059 6.059 0 0 0 605.8 0.5 A 8.264 8.264 0 0 0 604.144 0.658 A 5.661 5.661 0 0 0 601.2 2.2 A 5.588 5.588 0 0 0 599.729 4.832 A 7.987 7.987 0 0 0 599.5 6.8 A 5.992 5.992 0 0 0 599.992 9.219 A 6.643 6.643 0 0 0 601.35 11.2 A 7.466 7.466 0 0 0 601.437 11.288 Z"
              id="13"/>
        <path d="M 635.3 74 L 626.3 74 L 626.3 22 L 635 22 L 635 30.7 Q 637.8 26.5 642.15 23.65 A 17.316 17.316 0 0 1 649.256 21.025 A 22.629 22.629 0 0 1 652.5 20.8 A 23.225 23.225 0 0 1 657.565 21.318 Q 662.659 22.456 665.65 26.1 Q 669.775 31.126 669.988 39.209 A 33.764 33.764 0 0 1 670 40.1 L 670 74 L 661 74 L 661 41.1 A 19.265 19.265 0 0 0 660.658 37.359 Q 660.219 35.145 659.219 33.397 A 10.966 10.966 0 0 0 658.35 32.1 A 8.579 8.579 0 0 0 652.073 28.747 A 12.061 12.061 0 0 0 651 28.7 A 13.122 13.122 0 0 0 644.151 30.664 A 17.353 17.353 0 0 0 642.3 31.95 Q 638.2 35.2 635.3 39.6 L 635.3 74 Z"
              id="14"/>
        <path d="M 694.5 74 L 685.5 74 L 685.5 22 L 694.5 22 L 694.5 74 Z M 685.637 11.288 A 5.973 5.973 0 0 0 690 13.1 A 8.175 8.175 0 0 0 691.496 12.969 A 5.647 5.647 0 0 0 694.6 11.35 Q 696.3 9.6 696.3 6.8 A 7.26 7.26 0 0 0 696.3 6.719 A 6.06 6.06 0 0 0 694.45 2.35 A 7.395 7.395 0 0 0 694.392 2.293 A 6.059 6.059 0 0 0 690 0.5 A 8.264 8.264 0 0 0 688.344 0.658 A 5.661 5.661 0 0 0 685.4 2.2 A 5.588 5.588 0 0 0 683.929 4.832 A 7.987 7.987 0 0 0 683.7 6.8 A 5.992 5.992 0 0 0 684.192 9.219 A 6.643 6.643 0 0 0 685.55 11.2 A 7.466 7.466 0 0 0 685.637 11.288 Z"
              id="15"/>
        <path d="M 712.5 56.1 L 712.5 31.7 L 703.5 31.7 L 703.5 23.9 L 712.7 23.9 L 714.6 7.5 L 721.5 7.5 L 721.5 23.9 L 735.9 23.9 L 735.9 31.7 L 721.5 31.7 L 721.5 56.8 A 21.559 21.559 0 0 0 721.668 59.596 Q 722.141 63.202 723.95 64.9 Q 726.4 67.2 729.8 67.2 Q 732.3 67.2 734.55 66.4 Q 736.8 65.6 738.7 64.5 L 741.2 71.7 A 18.546 18.546 0 0 1 739.582 72.556 Q 738.78 72.935 737.834 73.308 A 43.365 43.365 0 0 1 735.8 74.05 Q 732.4 75.2 728.7 75.2 Q 721.2 75.2 716.85 70.25 A 16.116 16.116 0 0 1 713.622 64.348 Q 712.859 61.917 712.615 58.98 A 34.777 34.777 0 0 1 712.5 56.1 Z"
              id="16"/>
        <path d="M 759.2 74 L 750.2 74 L 750.2 22 L 759.2 22 L 759.2 74 Z M 750.337 11.288 A 5.973 5.973 0 0 0 754.7 13.1 A 8.175 8.175 0 0 0 756.196 12.969 A 5.647 5.647 0 0 0 759.3 11.35 Q 761 9.6 761 6.8 A 7.26 7.26 0 0 0 761 6.719 A 6.06 6.06 0 0 0 759.15 2.35 A 7.395 7.395 0 0 0 759.092 2.293 A 6.059 6.059 0 0 0 754.7 0.5 A 8.264 8.264 0 0 0 753.044 0.658 A 5.661 5.661 0 0 0 750.1 2.2 A 5.588 5.588 0 0 0 748.629 4.832 A 7.987 7.987 0 0 0 748.4 6.8 A 5.992 5.992 0 0 0 748.892 9.219 A 6.643 6.643 0 0 0 750.25 11.2 A 7.466 7.466 0 0 0 750.337 11.288 Z"
              id="17"/>
        <path d="M 810.8 26.2 L 810.8 22 L 819 22 L 819 61.4 A 12.15 12.15 0 0 0 819.102 63.036 Q 819.434 65.47 820.85 66.35 Q 822.7 67.5 824.9 67.5 L 823 74.5 A 17.722 17.722 0 0 1 818.735 74.028 Q 813.098 72.628 811.503 67.08 A 13.59 13.59 0 0 1 811.4 66.7 A 21.307 21.307 0 0 1 808.29 70.126 A 28.498 28.498 0 0 1 805.15 72.55 Q 801.2 75.2 795.1 75.2 Q 788.6 75.2 783.3 71.9 A 22.947 22.947 0 0 1 775.887 64.373 A 27.923 27.923 0 0 1 774.85 62.55 A 27.228 27.228 0 0 1 772.22 54.608 A 36.644 36.644 0 0 1 771.7 48.3 A 33.142 33.142 0 0 1 772.697 40.031 A 27.968 27.968 0 0 1 774.85 34.3 Q 778 28.1 783.55 24.45 A 22.297 22.297 0 0 1 794.745 20.844 A 27.388 27.388 0 0 1 796.3 20.8 A 22.584 22.584 0 0 1 801.094 21.29 A 18.703 18.703 0 0 1 804.45 22.35 A 26.002 26.002 0 0 1 808.737 24.644 A 22.103 22.103 0 0 1 810.8 26.2 Z M 810 60.7 L 810 32.8 Q 807.3 30.9 804.05 29.75 Q 800.8 28.6 797.2 28.6 A 15.924 15.924 0 0 0 792.229 29.354 A 14.024 14.024 0 0 0 788.75 31.05 A 16.301 16.301 0 0 0 783.731 36.474 A 19.962 19.962 0 0 0 783 37.85 A 20.663 20.663 0 0 0 781.247 43.527 A 27.678 27.678 0 0 0 780.9 48 Q 780.9 53.6 783 57.95 A 17.602 17.602 0 0 0 786.106 62.496 A 15.697 15.697 0 0 0 788.8 64.75 Q 792.5 67.2 797.1 67.2 Q 800.9 67.2 804.3 65.35 Q 807.7 63.5 810 60.7 Z"
              id="18"/>
        <path d="M 836.4 57.7 L 836.4 0 L 845.4 0 L 845.4 56.8 A 20.644 20.644 0 0 0 845.588 59.688 Q 846.05 62.952 847.65 64.8 A 7.363 7.363 0 0 0 852.234 67.276 A 10.724 10.724 0 0 0 853.9 67.4 Q 855.8 67.4 857.65 66.95 A 22.192 22.192 0 0 0 859.113 66.544 Q 860.048 66.247 860.8 65.9 L 863 73.2 Q 861.601 73.822 859.688 74.323 A 34.978 34.978 0 0 1 858.55 74.6 A 23.816 23.816 0 0 1 855.395 75.085 A 30.514 30.514 0 0 1 852.7 75.2 A 20.862 20.862 0 0 1 847.81 74.646 A 17.544 17.544 0 0 1 844.4 73.45 A 12.683 12.683 0 0 1 839.075 68.685 A 15.856 15.856 0 0 1 838.55 67.8 Q 836.816 64.654 836.48 60.012 A 32.105 32.105 0 0 1 836.4 57.7 Z"
              id="19"/>
        <path d="M 880.5 74 L 871.5 74 L 871.5 22 L 880.5 22 L 880.5 74 Z M 871.637 11.288 A 5.973 5.973 0 0 0 876 13.1 A 8.175 8.175 0 0 0 877.496 12.969 A 5.647 5.647 0 0 0 880.6 11.35 Q 882.3 9.6 882.3 6.8 A 7.26 7.26 0 0 0 882.3 6.719 A 6.06 6.06 0 0 0 880.45 2.35 A 7.395 7.395 0 0 0 880.392 2.293 A 6.059 6.059 0 0 0 876 0.5 A 8.264 8.264 0 0 0 874.344 0.658 A 5.661 5.661 0 0 0 871.4 2.2 A 5.588 5.588 0 0 0 869.929 4.832 A 7.987 7.987 0 0 0 869.7 6.8 A 5.992 5.992 0 0 0 870.192 9.219 A 6.643 6.643 0 0 0 871.55 11.2 A 7.466 7.466 0 0 0 871.637 11.288 Z"
              id="20"/>
        <path d="M 932.2 74 L 892 74 L 892 66.9 L 920.7 29.8 L 892.6 29.8 L 892.6 22 L 931.7 22 L 931.7 28.9 L 903.1 66 L 932.2 66 L 932.2 74 Z"
              id="21"/>
        <path d="M 952.7 74 L 943.7 74 L 943.7 22 L 952.4 22 L 952.4 33.3 Q 953.7 30 955.9 27.15 Q 958.1 24.3 961.4 22.55 A 14.817 14.817 0 0 1 966.08 21.026 A 19.459 19.459 0 0 1 969.1 20.8 Q 970.6 20.8 972.1 20.95 A 18.972 18.972 0 0 1 973.155 21.084 Q 973.655 21.162 974.082 21.262 A 8.817 8.817 0 0 1 974.6 21.4 L 971.9 30.7 A 9.763 9.763 0 0 0 969.755 30.088 Q 968.659 29.9 967.4 29.9 A 12.958 12.958 0 0 0 960.77 31.746 A 15.609 15.609 0 0 0 960.35 32 Q 957.022 34.086 954.878 38.442 A 22.927 22.927 0 0 0 954.85 38.5 Q 953.087 42.107 952.77 47.328 A 39.09 39.09 0 0 0 952.7 49.7 L 952.7 74 Z"
              id="22"/>
    </g>
</svg>